<?xml version="1.0" encoding="utf-8"?>
<!-- Generator: Adobe Adobe Illustrator 24.2.0, SVG Export Plug-In . SVG Version: 6.00 Build 0)  -->
<svg version="1.1" xmlns="http://www.w3.org/2000/svg" xmlns:xlink="http://www.w3.org/1999/xlink" x="0px" y="0px" width="4000px"
	 height="1000px" viewBox="0 0 4000 1000" style="enable-background:new 0 0 4000 1000;" xml:space="preserve">
<style type="text/css">
	.st0{display:none;}
	.st1{display:inline;stroke:#000000;stroke-width:14;}
	.st2{fill:#B9BCBF;}
	.st3{fill:#F37A26;}
	.st4{fill:#F17A27;}
	.st5{fill:#C3214C;}
	.st6{fill:#EF7A26;}
	.st7{font-family:'OfeliaText-Medium';}
	.st8{font-size:1131.2234px;}
	.st9{letter-spacing:-99;}
</style>
<g id="Layer_2" class="st0">
	<rect y="9.37" class="st1" width="4000" height="990.63"/>
</g>
<g id="Layer_1">
	<g>
		<g>
			<g id="Pi_copy_3">
				<g>
					<g>
						<path class="st2" d="M537.36,449.81c-78.92-0.37-142.45-54.91-142.06-121.97c0-0.37,0-0.93,0-1.31
							c0.4-67.06,64.73-121.04,143.65-120.66c78.92,0.37,142.45,54.91,142.06,121.97c0,0.56,0,0.93,0,1.31
							C680.61,396.2,616.28,450.18,537.36,449.81z"/>
						<path class="st2" d="M291.41,442.15c52.08-31.31,124.16-17.3,172.09,29.91H259.19C267.47,460.3,278.24,450.1,291.41,442.15z"
							/>
						<path class="st2" d="M784.91,448.5c10.74,6.48,19.88,14.46,27.38,23.56H619.64C667.39,430.01,735.24,418.64,784.91,448.5z"/>
						<path class="st2" d="M135.77,393.4c21.53-8.75,41.42,30.65,52.77,78.66H91.43C96.76,439.3,113.26,410.05,135.77,393.4z"/>
						<path class="st2" d="M934.95,396.58c21.76,16.16,37.9,44.05,43.77,75.49h-95.77C894.42,425.5,913.9,388.02,934.95,396.58z"/>
						<path class="st2" d="M542.55,168.33c-56.94,1.31-144.45-21.11-143.45-49.68c-0.8-19.43,68.73-75.83,139.66-73.03
							c68.33-0.93,139.26,55.29,138.26,80.13C677.02,151.33,599.89,170.57,542.55,168.33z"/>
						<path class="st2" d="M182.92,378.08c-26.37-18.49-31.17-81.44,6.39-143.26c55.54-73.59,134.06-81.06,166.23-63.13
							c34.17,23.53,15.38,103.11-25.37,148.49C283.22,370.43,222.48,400.31,182.92,378.08z"/>
						<path class="st2" d="M741.55,334.56c-44.16-47.63-68.73-134.67-36.56-162.69c30.77-21.67,113.68-18.68,174.82,59.4
							c44.35,52.49,29.57,140.09,4.2,163.44C846.24,421.61,792.1,387.24,741.55,334.56z"/>
					</g>
					<rect x="45.13" y="474.43" class="st3" width="27.21" height="52.07"/>
					<rect x="998.92" y="474.43" class="st3" width="27.21" height="52.07"/>
					<path class="st4" d="M45.13,487.07v-14.2c0-0.54,0.03-1.07,0.11-1.61c4.25-31.36,18.45-63.59,46.62-93.86
						c1.53-1.64,2.58-3.63,3.04-5.77c6.36-29.77,16.51-51.64,25.47-75.71c0.28-0.76,0.48-1.56,0.6-2.36
						c14.34-98.33,102.31-145.92,129.69-153.63c1.5-0.42,2.91-1.06,4.16-1.93c34.74-24.26,71.9-47.37,121.48-63.65
						c1.86-0.61,3.55-1.61,4.95-2.91C429.6,26.42,481.79,9.19,534.37,9.37c0.8,0,1.6,0,2.4,0c52.59,0,104.78,17.24,153.15,62.11
						c1.38,1.28,3.06,2.27,4.89,2.88c49.6,16.45,86.77,39.39,121.52,63.65c1.25,0.87,2.66,1.51,4.16,1.93
						c27.37,7.7,115.14,55.29,129.68,153.61c0.12,0.82,0.33,1.63,0.62,2.41c9.14,24.06,19.11,45.92,25.45,75.68
						c0.46,2.14,1.51,4.13,3.05,5.78c28.22,30.26,42.46,62.49,46.74,93.85c0.07,0.54,0.11,1.07,0.11,1.61v14.19
						c0,6.75-5.85,12.21-13.06,12.21H58.19C50.98,499.28,45.13,493.81,45.13,487.07z M779.57,472.06c12.93,0,17.97-15.62,7.25-22.39
						c-0.63-0.4-1.26-0.79-1.9-1.17c-38.89-23.38-88.93-21.49-131.74,0.63c-11.83,6.11-7.21,22.93,6.3,22.93L779.57,472.06
						L779.57,472.06z M133.51,395.13c-17.84,14.12-31.65,36.25-38.71,61.62c-2.16,7.74,4.09,15.31,12.65,15.31h64.46
						c8.57,0,14.86-7.59,12.64-15.33c-10.79-37.54-26.85-66.36-44.33-64.47C137.72,392.53,135.42,393.62,133.51,395.13z
						 M354.75,171.25c-32.57-17.32-109.93-9.46-164.99,62.99c-0.29,0.38-0.57,0.79-0.81,1.2c-36.8,61.03-32.39,123.01-6.78,142.1
						c0.5,0.37,1.03,0.7,1.58,1c39.58,21.36,99.8-8.46,146.42-58.36c40.46-45.06,59.26-123.8,26.12-147.97
						C355.8,171.86,355.29,171.54,354.75,171.25z M291.41,442.15c-4.31,2.6-8.36,5.44-12.15,8.5c-9.13,7.37-3.45,21.41,8.61,21.41
						h140.12c12.95,0,17.96-15.65,7.22-22.4C390,421.26,334.02,416.54,291.41,442.15z M538.76,45.61
						c-70.93-2.8-140.46,53.61-139.66,73.03c-1,28.58,86.51,50.99,143.45,49.68c57.34,2.24,134.46-17,134.46-42.59
						C678.02,100.9,607.09,44.67,538.76,45.61z M681.02,327.84c0.4-67.06-63.14-121.6-142.06-121.97s-143.25,53.61-143.65,120.66
						c0,0.37,0,0.93,0,1.31c-0.4,67.06,63.14,121.6,142.06,121.97s143.25-53.61,143.65-120.66
						C681.02,328.77,681.02,328.4,681.02,327.84z M879.82,231.27c-60.62-77.41-142.65-81.01-174.03-59.94
						c-0.54,0.36-1.04,0.75-1.51,1.19c-31.08,28.68-6.55,114.78,37.28,162.05c50.16,52.26,103.85,86.51,141.57,60.76
						c0.59-0.4,1.15-0.85,1.65-1.34C909.68,369.59,923.72,283.23,879.82,231.27z M930.59,395.45c-16.98-1.9-32.61,25.14-43.39,61.04
						c-2.35,7.81,3.88,15.57,12.56,15.57h62.57c8.66,0,14.97-7.74,12.58-15.52c-7.32-23.92-20.68-44.71-37.7-58.23
						C935.32,396.81,933.05,395.72,930.59,395.45z"/>
				</g>
			</g>
			<g id="Pi">
				<g>
					<g>
						<path class="st5" d="M537.36,550.18c-78.92,0.37-142.45,54.91-142.06,121.97c0,0.37,0,0.93,0,1.31
							c0.4,67.06,64.73,121.04,143.65,120.66c78.92-0.37,142.45-54.91,142.06-121.97c0-0.56,0-0.93,0-1.31
							C680.61,603.79,616.28,549.81,537.36,550.18z"/>
						<path class="st5" d="M291.41,557.84c52.08,31.31,124.16,17.3,172.09-29.91H259.19C267.47,539.69,278.24,549.89,291.41,557.84z
							"/>
						<path class="st5" d="M784.91,551.49c10.74-6.48,19.88-14.46,27.38-23.56H619.64C667.39,569.98,735.24,581.35,784.91,551.49z"
							/>
						<path class="st5" d="M135.77,606.59c21.53,8.75,41.42-30.65,52.77-78.66H91.43C96.76,560.69,113.26,589.94,135.77,606.59z"/>
						<path class="st5" d="M934.95,603.41c21.76-16.16,37.9-44.05,43.77-75.49h-95.77C894.42,574.49,913.9,611.97,934.95,603.41z"/>
						<path class="st5" d="M542.55,831.66c-56.94-1.31-144.45,21.11-143.45,49.68c-0.8,19.43,68.73,75.83,139.66,73.03
							c68.33,0.93,139.26-55.29,138.26-80.13C677.02,848.66,599.89,829.42,542.55,831.66z"/>
						<path class="st5" d="M182.92,621.91c-26.37,18.49-31.17,81.44,6.39,143.26c55.54,73.59,134.06,81.06,166.23,63.13
							c34.17-23.53,15.38-103.11-25.37-148.49C283.22,629.56,222.48,599.68,182.92,621.91z"/>
						<path class="st5" d="M741.55,665.43c-44.16,47.63-68.73,134.67-36.56,162.69c30.77,21.67,113.68,18.68,174.82-59.4
							c44.35-52.49,29.57-140.09,4.2-163.44C846.24,578.38,792.1,612.75,741.55,665.43z"/>
					</g>
				</g>
				<path d="M45.13,512.92v14.2c0,0.54,0.03,1.07,0.11,1.61c4.25,31.36,18.45,63.59,46.62,93.86c1.53,1.64,2.58,3.63,3.04,5.77
					c6.36,29.77,16.51,51.64,25.47,75.71c0.28,0.76,0.48,1.56,0.6,2.36c14.34,98.33,102.31,145.92,129.69,153.63
					c1.5,0.42,2.91,1.06,4.16,1.93c34.74,24.26,71.9,47.37,121.48,63.65c1.86,0.61,3.55,1.61,4.95,2.91
					c48.36,45.03,100.55,62.26,153.13,62.08c0.8,0,1.6,0,2.4,0c52.59,0,104.78-17.24,153.15-62.11c1.38-1.28,3.06-2.27,4.89-2.88
					c49.6-16.45,86.77-39.39,121.52-63.65c1.25-0.87,2.66-1.51,4.16-1.93c27.37-7.7,115.14-55.29,129.68-153.61
					c0.12-0.82,0.33-1.63,0.62-2.41c9.14-24.06,19.11-45.92,25.45-75.68c0.46-2.14,1.51-4.13,3.05-5.78
					c28.22-30.26,42.46-62.49,46.74-93.85c0.07-0.54,0.11-1.07,0.11-1.61v-14.2c0-6.75-5.85-12.21-13.06-12.21H58.19
					C50.98,500.71,45.13,506.18,45.13,512.92z M779.57,527.93c12.93,0,17.97,15.62,7.25,22.39c-0.63,0.4-1.26,0.79-1.9,1.17
					c-38.89,23.38-88.93,21.49-131.74-0.63c-11.83-6.11-7.21-22.93,6.3-22.93H779.57z M133.51,604.86
					c-17.84-14.12-31.65-36.25-38.71-61.62c-2.16-7.74,4.09-15.31,12.65-15.31h64.46c8.57,0,14.86,7.59,12.64,15.33
					c-10.79,37.54-26.85,66.36-44.33,64.47C137.72,607.46,135.42,606.37,133.51,604.86z M354.75,828.74
					c-32.57,17.32-109.93,9.46-164.99-62.99c-0.29-0.38-0.57-0.79-0.81-1.2c-36.8-61.03-32.39-123.01-6.78-142.1
					c0.5-0.37,1.03-0.7,1.58-1c39.58-21.36,99.8,8.46,146.42,58.36c40.46,45.06,59.26,123.8,26.12,147.97
					C355.8,828.13,355.29,828.45,354.75,828.74z M291.41,557.84c-4.31-2.6-8.36-5.44-12.15-8.5c-9.13-7.37-3.45-21.41,8.61-21.41
					h140.12c12.95,0,17.96,15.65,7.22,22.4C390,578.73,334.02,583.45,291.41,557.84z M538.76,954.38
					c-70.93,2.8-140.46-53.61-139.66-73.03c-1-28.58,86.51-50.99,143.45-49.68c57.34-2.24,134.46,17,134.46,42.59
					C678.02,899.09,607.09,955.32,538.76,954.38z M681.02,672.15c0.4,67.06-63.14,121.6-142.06,121.97s-143.25-53.61-143.65-120.66
					c0-0.37,0-0.93,0-1.31c-0.4-67.06,63.14-121.6,142.06-121.97c78.92-0.37,143.25,53.61,143.65,120.66
					C681.02,671.22,681.02,671.59,681.02,672.15z M879.82,768.72c-60.62,77.41-142.65,81.01-174.03,59.94
					c-0.54-0.36-1.04-0.75-1.51-1.19c-31.08-28.68-6.55-114.78,37.28-162.05c50.16-52.26,103.85-86.51,141.57-60.76
					c0.59,0.4,1.15,0.85,1.65,1.34C909.68,630.4,923.72,716.76,879.82,768.72z M930.59,604.54c-16.98,1.9-32.61-25.14-43.39-61.04
					c-2.35-7.81,3.88-15.57,12.56-15.57h62.57c8.66,0,14.97,7.74,12.58,15.52c-7.32,23.92-20.68,44.71-37.7,58.23
					C935.32,603.18,933.05,604.27,930.59,604.54z"/>
				<rect x="45.13" y="498.34" width="981" height="23.67"/>
			</g>
		</g>
		<text transform="matrix(1 0 0 1 1026.146 924.2324)" class="st6 st7 st8 st9">PiFire</text>
	</g>
</g>
</svg>
